<svg xmlns="http://www.w3.org/2000/svg" viewBox="0 0 389.92 83.33"><defs><style>.cls-1{fill:#f20732;}.cls-2{fill:#1a2333;}</style></defs><title>Asset 12</title><g id="Layer_2" data-name="Layer 2"><g id="Layer_1-2" data-name="Layer 1"><path class="cls-1" d="M74.72,28c-6.46,0-12.06,8.93-12.91,19.29-.53,6.46,2.08,10.6,6,10.6,6.54,0,12.12-8.77,13-19.29C81.31,32.19,78.7,28,74.72,28Z"/><path class="cls-1" d="M112.5,28c-6.46,0-12.06,8.93-12.91,19.29-.53,6.46,2.08,10.6,6,10.6,6.54,0,12.12-8.77,13-19.29C119.09,32.19,116.49,28,112.5,28Z"/><path class="cls-1" d="M146.2,0H24.2a13.76,13.76,0,0,0-13,11L.18,72.33c-1.09,6.08,2.95,11,9,11h122a13.76,13.76,0,0,0,13-11l11-61.33C156.31,4.92,152.27,0,146.2,0ZM34.2,68.86H27.43c-2.39,0-3.48-1.36-2.87-3.83l8.86-37.92H25.28c-2.39,0-3.48-1.36-2.79-3.83l1-3.91a4.73,4.73,0,0,1,4.78-3.83H47.12c2.47,0,3.48,1.36,2.79,3.83L39.06,65A4.75,4.75,0,0,1,34.2,68.86ZM133,37.53c-1.52,18.5-14.46,32.29-30.32,32.29-6.49,0-11.54-2.7-14.55-7.34a46.61,46.61,0,0,0,5.32-15.84,36.64,36.64,0,0,1-6.92,12.73A28.27,28.27,0,0,1,64.89,69.82c-11.56,0-18.59-8.53-17.53-21.45,1.52-18.5,14.54-32.29,30.32-32.29,6.54,0,11.6,2.67,14.59,7.31a46.45,46.45,0,0,0-5.36,15.89c4.32-13.75,15.48-23.2,28.55-23.2C127.11,16.08,134.07,24.53,133,37.53Z"/><path class="cls-2" d="M161.86,75.83,174.13,7.62a6.69,6.69,0,0,1,7-5.77h29.69c17.91,0,27,9.2,27,22.45,0,18.53-12.51,30.92-35.95,30.92H187.74l-3.68,20.61a6.66,6.66,0,0,1-6.87,5.77H166.76C163.08,81.6,161.12,79.51,161.86,75.83Zm42.2-37.54c5.89,0,10.67-3.56,10.67-10.55,0-4.91-3.43-7.85-8-7.85H194l-3.31,18.4Z"/><path class="cls-2" d="M302.57,81.6H289.69c-3.8,0-4.17-1.84-5-5.89l-1.35-6.87h-29.2l-3.93,6.87C248,79.51,247,81.6,243,81.6H228.84c-3.8,0-5.64-2.21-3.19-5.89L270.19,6.88c2.45-3.8,5.64-5.77,9.94-5.77h1.23c3.19,0,5.77,2,6.87,5.77L308,75.71C309,79.39,306.38,81.6,302.57,81.6ZM280.37,53.87l-4.54-22.82L262.7,53.87Z"/><path class="cls-2" d="M388.7,7.25l-34,45.39-4.17,23.06c-.61,3.8-3.19,5.89-7,5.89H332.88c-3.8,0-5.4-2.09-4.78-5.89l4.17-23.31L313.86,7.25c-1.47-3.68,1.47-5.4,5.4-5.4h10.67c4.66,0,6.63,2.58,7.85,5.89L346.86,32,363.92,7.74c3.07-4.29,6.26-5.89,9.94-5.89h11.41C389.06,1.85,391.52,3.45,388.7,7.25Z"/></g></g></svg>